<svg width="18" height="18" viewBox="0 0 18 18" fill="none" xmlns="http://www.w3.org/2000/svg">
    <g clip-path="url(#clip0_2649_38775)">
        <path d="M3 9.11251V3.00001C3 2.60218 3.15804 2.22065 3.43934 1.93935C3.72064 1.65804 4.10218 1.50001 4.5 1.50001H10.5C10.7377 1.49942 10.9731 1.54591 11.1927 1.63679C11.4123 1.72767 11.6117 1.86115 11.7795 2.02951L14.4705 4.72051C14.6389 4.88826 14.7723 5.08769 14.8632 5.3073C14.9541 5.52691 15.0006 5.76234 15 6.00001V15C15 15.3978 14.842 15.7794 14.5607 16.0607C14.2794 16.342 13.8978 16.5 13.5 16.5H10.9875" stroke="#4E49FF" stroke-width="1.5" stroke-linecap="round" stroke-linejoin="round"/>
        <path d="M10.5 1.5V5.25C10.5 5.44891 10.579 5.63968 10.7197 5.78033C10.8603 5.92098 11.0511 6 11.25 6H15" stroke="#4E49FF" stroke-width="1.5" stroke-linecap="round" stroke-linejoin="round"/>
        <path d="M3.75 12L1.5 14.25L3.75 16.5" stroke="#4E49FF" stroke-width="1.5" stroke-linecap="round" stroke-linejoin="round"/>
        <path d="M6.75 16.5L9 14.25L6.75 12" stroke="#4E49FF" stroke-width="1.5" stroke-linecap="round" stroke-linejoin="round"/>
    </g>
    <defs>
        <clipPath id="clip0_2649_38775">
            <rect width="18" height="18" fill="white"/>
        </clipPath>
    </defs>
</svg>
